HIERARCHY
ROOT Hips
{
	OFFSET 0.0000 0.0000 0.0000
	CHANNELS 6 Xposition Yposition Zposition Zrotation Xrotation Yrotation
	JOINT Ab
	{
		OFFSET -0.0000 8.0846 -0.0000
		CHANNELS 3 Zrotation Xrotation Yrotation
		JOINT Chest
		{
			OFFSET -0.0000 25.0068 -0.0000
			CHANNELS 3 Zrotation Xrotation Yrotation
			JOINT Neck
			{
				OFFSET -0.0000 25.0068 0.0000
				CHANNELS 3 Zrotation Xrotation Yrotation
				JOINT Head
				{
					OFFSET -0.0000 10.7556 0.0000
					CHANNELS 3 Zrotation Xrotation Yrotation
					End Site
					{
						OFFSET -0.0000 16.6222 0.0000
					}
				}
			}
			JOINT LeftCollar
			{
				OFFSET -0.0000 25.0068 0.0000
				CHANNELS 3 Zrotation Xrotation Yrotation
				JOINT LeftShoulder
				{
					OFFSET 19.5556 -0.0000 0.0000
					CHANNELS 3 Zrotation Xrotation Yrotation
					JOINT LeftElbow
					{
						OFFSET 27.1828 0.0000 0.0000
						CHANNELS 3 Zrotation Xrotation Yrotation
						JOINT LeftWrist
						{
							OFFSET 23.3157 0.0000 0.0000
							CHANNELS 3 Zrotation Xrotation Yrotation
							End Site
							{
								OFFSET 0.0000 -14.6667 0.0000
							}
						}
					}
				}
			}
			JOINT RightCollar
			{
				OFFSET -0.0000 25.0068 0.0000
				CHANNELS 3 Zrotation Xrotation Yrotation
				JOINT RightShoulder
				{
					OFFSET -19.5556 0.0000 0.0000
					CHANNELS 3 Zrotation Xrotation Yrotation
					JOINT RightElbow
					{
						OFFSET -27.1828 0.0000 0.0000
						CHANNELS 3 Zrotation Xrotation Yrotation
						JOINT RightWrist
						{
							OFFSET -23.3157 0.0000 0.0000
							CHANNELS 3 Zrotation Xrotation Yrotation
							End Site
							{
								OFFSET -0.0000 -14.6667 0.0000
							}
						}
					}
				}
			}
		}
	}
	JOINT LeftHip
	{
		OFFSET 11.7333 0.0000 0.0000
		CHANNELS 3 Zrotation Xrotation Yrotation
		JOINT LeftKnee
		{
			OFFSET -0.0000 -40.8688 0.0000
			CHANNELS 3 Zrotation Xrotation Yrotation
			JOINT LeftAnkle
			{
				OFFSET -0.0000 -44.4337 0.0000
				CHANNELS 3 Zrotation Xrotation Yrotation
				End Site
				{
					OFFSET -0.0000 -4.8889 16.6222
				}
			}
		}
	}
	JOINT RightHip
	{
		OFFSET -11.7333 0.0000 0.0000
		CHANNELS 3 Zrotation Xrotation Yrotation
		JOINT RightKnee
		{
			OFFSET -0.0000 -40.8688 0.0000
			CHANNELS 3 Zrotation Xrotation Yrotation
			JOINT RightAnkle
			{
				OFFSET -0.0000 -44.4337 0.0000
				CHANNELS 3 Zrotation Xrotation Yrotation
				End Site
				{
					OFFSET -0.0000 -4.8889 16.6222
				}
			}
		}
	}
}
MOTION
Frames: 16
Frame Time: 0.010000
-6.0940 87.4742 80.0000 2.4039 359.8281 175.8257 358.1115 2.6886 357.0352 1.3876 11.5635 356.8498 8.1842 340.1642 3.4065 356.5904 10.9076 2.3027 340.4348 358.5820 8.2472 319.6335 42.5707 333.8517 34.2776 349.6048 328.2360 82.8105 357.3505 2.8657 19.5398 358.7635 352.8558 66.5214 32.0277 358.5979 343.4227 355.7876 28.2795 280.3391 353.4834 29.3874 358.1507 3.4433 357.2980 357.8038 10.1173 358.4073 358.0469 349.4198 19.3493 2.1790 331.8339 1.1604 1.3307 26.1885 359.3229 354.9752 353.3820 338.3909 
-6.0659 87.3751 79.4936 2.3242 359.8361 175.9318 358.1190 2.7203 356.9786 1.3806 11.5876 356.7936 8.1910 340.1264 3.3942 356.6189 10.8934 2.2797 340.3594 358.5716 8.2170 320.1934 42.6517 333.5502 34.4113 349.6804 328.2387 83.0162 357.4529 3.2541 19.5369 358.7621 352.8282 66.6565 31.8626 358.3166 343.5225 355.8442 28.1856 280.3890 353.7371 29.6380 358.0804 3.7490 357.2934 357.7895 10.1867 358.2411 358.1223 349.1667 19.4356 2.1999 331.7148 1.2525 1.0014 24.8992 359.8433 355.5332 353.2016 339.9916 
-6.0300 87.3249 79.2099 2.2597 359.8803 176.0034 358.0948 2.7534 356.9651 1.3846 11.6420 356.7777 8.2171 340.0770 3.4040 356.6612 10.9018 2.2813 340.3470 358.5504 8.2966 320.3551 42.8006 333.4032 34.5018 349.7410 328.2363 83.0568 357.5374 3.4356 19.5293 358.7544 352.8762 66.7317 31.8080 358.1716 343.5746 355.8683 28.2186 280.3468 353.9247 29.6555 358.0200 3.9665 357.2533 357.7876 10.2116 358.1853 358.1297 349.0092 19.4665 2.2055 331.6601 1.3928 0.8468 24.3117 0.1623 356.1010 352.4331 343.9945 
-5.9754 87.0750 78.0059 2.0327 359.9448 176.1881 358.0065 2.6412 356.8701 1.3166 11.9642 356.6859 8.3322 339.9806 3.3568 356.5386 10.9445 2.2043 340.2846 358.5573 8.2541 322.1317 43.3073 331.9389 35.1895 349.5676 328.6820 83.4284 357.4448 4.0872 19.5418 358.7538 352.7062 67.0007 31.4861 357.6590 343.8142 355.9535 27.9513 280.6091 354.0985 30.2814 357.8370 4.8201 356.9769 357.7016 10.2293 358.1667 358.2042 348.4559 19.5501 2.1246 331.6192 1.8659 0.5255 21.6382 0.4746 356.0571 352.4374 343.6093 
-5.8979 86.8986 77.2402 1.9343 0.0120 176.3383 357.9576 2.6396 356.8066 1.3566 12.1047 356.6152 8.3580 339.9675 3.3668 356.5885 10.9655 2.2164 340.1871 358.5457 8.3113 323.0909 43.6188 331.2007 35.7370 349.4804 328.9439 83.2317 357.2482 4.5283 19.5161 358.7320 352.6732 67.1654 31.3412 357.3072 343.9747 355.9979 27.9034 280.6358 354.3712 30.5207 357.8168 5.3393 357.0167 357.6357 10.3578 357.9606 358.1210 348.1353 19.5214 2.1338 331.6321 2.2296 0.3344 20.1192 0.5048 356.9170 352.5563 341.1305 
-5.8362 86.7362 76.5374 1.8076 0.0680 176.5174 357.8842 2.6753 356.7615 1.4164 12.1760 356.5606 8.3919 339.9706 3.3519 356.5566 10.9756 2.1993 340.0473 358.5394 8.3605 324.0735 44.0382 330.5022 36.2065 349.4564 329.2762 83.2207 357.1054 5.1376 19.4864 358.7304 352.6055 67.2832 31.1514 357.0210 344.1091 356.0448 27.8048 280.8622 354.2782 30.6604 357.7517 5.7614 357.0587 357.5943 10.5464 357.7382 358.0966 347.8003 19.5271 2.0167 331.6423 2.5610 0.2773 18.8622 0.4787 357.2177 352.4644 340.1237 
-5.7707 86.5738 75.8246 1.6804 0.1270 176.6975 357.8040 2.7060 356.7285 1.4975 12.2568 356.5156 8.4300 339.9700 3.3242 356.4729 10.9807 2.1697 339.9040 358.5292 8.3641 324.9356 44.3568 329.9171 36.6064 349.4621 329.5864 83.1523 356.9412 5.5912 19.4507 358.7127 352.5068 67.3601 30.9718 356.7758 344.2854 356.1118 27.7111 281.0225 354.2252 30.9765 357.6907 6.1758 357.1336 357.5643 10.7656 357.4368 358.1620 347.4815 19.5323 1.8560 331.6572 2.8323 0.3086 17.7608 0.2862 357.1225 352.2546 340.1136 
-5.6964 86.4147 75.0978 1.5579 0.1849 176.8765 357.7419 2.7141 356.6867 1.5653 12.3606 356.4627 8.4442 339.9712 3.2867 356.4463 10.9733 2.1328 339.8167 358.5334 8.2507 325.3642 44.3131 329.7218 36.7856 349.5050 329.6239 83.0980 356.9030 5.6995 19.4227 358.7191 352.4242 67.4657 30.6983 356.5140 344.4951 356.1695 27.6415 281.1649 354.1903 31.4906 357.6697 6.5351 357.0884 357.4701 11.1159 357.2233 358.2979 347.1643 19.5344 1.6790 331.6625 3.0688 0.3968 16.8744 359.9803 357.1955 352.0509 340.2549 
-5.6167 86.2581 74.3657 1.4376 0.2412 177.0697 357.7139 2.7122 356.6378 1.5867 12.4939 356.4096 8.5067 339.8962 3.2312 356.2964 11.0507 2.0758 339.7690 358.5292 8.1349 325.6550 44.1959 329.5972 36.9217 349.5126 329.4875 83.1654 357.0105 5.7248 19.4168 358.7181 352.3551 67.5901 30.4789 356.2521 344.5787 356.1734 27.7353 281.3394 354.4355 31.7579 357.6527 6.9289 356.9471 357.3758 11.3884 357.3243 358.3591 346.8884 19.3511 1.5373 331.5894 3.1964 0.3770 16.3804 359.9350 357.4962 351.7795 340.0152 
-5.5307 86.0987 73.6248 1.3622 0.3044 177.2399 357.7291 2.7484 356.6070 1.6353 12.5762 356.3720 8.5417 339.8711 3.2271 356.2507 11.1090 2.0756 339.7055 358.5465 8.0536 325.8497 44.0600 329.5257 36.8938 349.5404 329.2895 83.5550 357.2290 5.7951 19.3766 358.6938 352.2959 67.7172 30.2606 355.9772 344.6639 356.2129 27.7806 281.5381 354.3639 32.0658 357.6874 7.2863 357.2049 357.3783 11.8004 356.7706 358.0923 346.5105 19.2940 1.4148 331.5228 3.3752 0.4392 16.0924 359.6969 357.6017 351.4821 340.1445 
-5.4244 85.9500 72.8593 1.2779 0.3843 177.4062 357.7024 2.7493 356.5879 1.7198 12.7384 356.3404 8.5848 339.8328 3.2138 356.1570 11.1144 2.0606 339.6154 358.5280 8.1483 326.6283 44.3830 328.9232 37.1165 349.4916 329.6274 83.5393 357.2109 5.9152 19.3272 358.6815 352.2069 67.8304 30.1615 355.7829 344.7657 356.2183 27.7718 281.6683 354.4698 32.2963 357.7441 7.6952 357.2971 357.3301 12.1619 356.4305 357.8575 346.2035 19.2400 1.3082 331.4665 3.6536 0.5243 16.0598 359.4949 357.8777 351.1160 340.1218 
-5.3226 85.8049 72.0932 1.1931 0.4256 177.5443 357.7068 2.7420 356.5693 1.7892 12.8409 356.3126 8.5866 339.8178 3.2024 356.1196 11.1205 2.0528 339.5289 358.5399 8.1326 326.9209 44.3132 328.8313 37.0811 349.5421 329.6294 83.5238 357.2895 5.8429 19.2907 358.6767 352.1257 67.9280 30.0820 355.6001 344.8111 356.2221 27.7440 281.7171 354.5824 32.4288 357.7899 8.0641 357.3405 357.2865 12.5263 356.1406 357.7735 345.9659 19.2113 1.2329 331.3163 3.9327 0.5935 16.3159 359.3132 358.0788 350.6208 339.9743 
-5.2123 85.6637 71.3159 1.1102 0.4642 177.6852 357.7072 2.7661 356.5430 1.8896 12.8689 356.2742 8.4078 339.9161 3.1337 356.3319 10.9733 1.9992 339.4423 358.5413 8.0605 326.8577 44.0619 329.0801 36.9389 349.6031 329.4653 83.6544 357.2779 5.7015 19.2598 358.6488 352.0591 68.0269 30.0006 355.3689 344.8021 356.2246 27.7216 281.8828 354.5561 32.4449 357.8433 8.4216 357.3528 357.2518 12.9171 355.8675 357.6866 345.7797 19.0868 1.1713 331.1390 4.1020 0.6301 16.8434 359.4177 357.9951 350.2283 339.7327 
-5.0941 85.5271 70.5216 1.0323 0.5476 177.8822 357.7173 2.8462 356.4901 2.0013 12.8840 356.2065 8.3047 339.9333 3.0765 356.4073 10.9386 1.9536 339.3663 358.5125 8.0586 326.9124 44.0890 329.1654 36.9556 349.5777 329.4456 83.7496 357.2961 5.6547 19.2596 358.6428 351.9847 68.0638 30.0167 355.1590 344.8313 356.2446 27.6912 281.8446 354.5981 32.4381 357.9274 8.7364 357.1358 357.1644 13.4729 355.7673 357.9037 345.6607 18.9996 1.0843 331.0315 4.2032 0.6967 17.5247 359.5782 357.7791 349.8932 339.4444 
-4.9679 85.3904 69.7257 1.0020 0.5239 178.0315 357.8286 2.8112 356.4335 2.0370 12.8956 356.1494 8.2994 339.9067 3.0881 356.3971 10.9878 1.9730 339.3091 358.5055 8.1320 326.9400 44.1125 329.2864 36.8973 349.6056 329.4580 83.9216 357.3807 5.4754 19.2677 358.6216 351.9458 68.0875 29.9881 354.9854 344.8552 356.2238 27.6980 281.9150 354.8240 32.4569 358.0600 9.0325 357.0190 357.1007 13.8710 355.6405 357.9292 345.5125 18.9177 1.1002 330.7960 4.3042 0.7466 18.4224 359.6218 357.8178 349.5314 339.2526 
-4.8191 85.2819 69.0363 0.9459 0.4827 178.1758 357.8769 2.7411 356.4100 2.1025 12.9266 356.1203 8.2757 339.8838 3.0774 356.3939 11.0175 1.9661 339.2914 358.5335 8.0761 326.4642 43.8813 329.8405 36.6806 349.6471 329.2575 83.9423 357.4245 5.0521 19.2690 358.6325 351.8888 68.1080 29.9525 354.8818 344.9122 356.2723 27.6522 281.9543 354.7422 32.4948 358.1470 9.2983 357.0067 357.0732 14.1652 355.4678 357.5575 345.1817 18.7592 1.1154 330.6647 4.4632 0.8334 19.1497 359.6703 357.5250 349.2409 338.8731 
